<?xml version="1.0" encoding="utf-8"?>
<!-- Generator: Adobe Illustrator 27.8.1, SVG Export Plug-In . SVG Version: 6.00 Build 0)  -->
<svg version="1.1" id="Layer_1" xmlns="http://www.w3.org/2000/svg" xmlns:xlink="http://www.w3.org/1999/xlink" x="0px" y="0px"
	 viewBox="0 0 1000 1000" style="enable-background:new 0 0 1000 1000;" xml:space="preserve">
<style type="text/css">
	.st0{fill:#5257A5;}
	.st1{fill:#24AB9D;}
</style>
<g>
	<path class="st0" d="M280.09,448.43c-0.82-6.26-3.27-9.16-7.62-9.22c-4.4-0.05-6.83,2.81-7.8,9.23c-0.74,0.5-1.5,1.06-2.3,1.57
		c-11.67,7.44-10.45,24.27,0.29,31.09c1.79,1.13,2.27,2.34,2.27,4.3c-0.04,26.52-0.12,53.03,0.07,79.55
		c0.08,10.75-7.59,21.39-18.11,23.86c-13.82,3.25-27.79-6.7-28.96-20.88c-0.46-5.68-0.19-11.36-0.19-17.04
		c-0.03-46.29-0.01-92.57-0.02-138.86c0-1.77,0.02-3.57-0.23-5.31c-0.52-3.73-3.36-6.2-6.99-6.31c-3.63-0.11-6.63,2.19-7.57,5.73
		c-0.4,1.52-0.32,3.06-0.32,4.59c-0.02,41.43-0.04,82.86-0.06,124.3c-0.01,18.82-0.05,37.64-0.06,56.47c0,4.1-0.74,7.98-2.74,11.61
		c-5.26,9.55-15.87,14.44-26.1,11.95c-10.61-2.58-18.13-11.93-18.16-22.98c-0.08-38.59-0.07-77.18-0.1-115.77
		c-0.01-9.11-0.03-18.23-0.02-27.34c0-1.55-0.03-3.09-0.53-4.56c-1.14-3.37-4.21-5.39-7.66-5.09c-3.16,0.28-5.99,2.82-6.52,6.08
		c-0.27,1.62-0.27,3.3-0.27,4.95c0,24.86-0.03,49.72,0.07,74.58c0.03,6.75-2.08,12.56-6.58,17.48c-5.96,6.52-13.53,8.59-21.97,6.89
		c-8.91-1.8-14.38-7.73-17.42-16.07c-1.06-2.93-1.21-6.01-1.21-9.11c0-11.72-0.01-23.44-0.03-35.16c0-1.42,0.01-2.85-0.19-4.25
		c-0.46-3.29-2.67-5.58-5.9-6.27c-0.69-0.15-1.41-0.21-2.1-0.34c-4.83-0.93-7.52-4.5-6.87-9.1c0.57-4.02,4.23-6.78,8.8-6.51
		c6.45,0.37,11.91,2.93,16.14,7.84c4.08,4.74,6.29,10.21,6.28,16.55c-0.02,12.43,0.02,24.86,0.04,37.29c0,1.53-0.04,3.07,0.51,4.56
		c1.1,2.99,3.63,4.91,6.68,4.97c3.14,0.06,5.96-1.93,7.08-4.96c0.55-1.48,0.55-3.02,0.55-4.55c-0.01-24.03-0.02-48.06-0.02-72.09
		c0-3.54-0.21-7.1,0.73-10.59c3.56-13.24,15.08-20.66,28.4-17.71c9.24,2.04,16.73,10.6,17.86,20.3c0.16,1.41,0.23,2.83,0.23,4.25
		c0.01,46.76,0,93.52-0.01,140.28c0,1.66-0.06,3.31,0.36,4.94c0.96,3.8,3.72,5.9,7.48,5.68c3.78-0.22,6.38-2.6,6.85-6.42
		c0.17-1.4,0.15-2.83,0.15-4.25c0.01-57.77,0.01-115.54,0.02-173.3c0-3.31-0.13-6.63,0.26-9.93c1.19-10.24,9.49-19.01,19.62-20.69
		c13.4-2.21,26.32,7.4,27.44,22.16c0.14,1.88,0.07,3.79,0.07,5.68c0.01,50.31,0.02,100.62,0.03,150.93c0,1.42-0.06,2.82,0.37,4.22
		c1.12,3.64,4.02,5.77,7.68,5.55c3.52-0.21,6.3-2.89,6.75-6.61c0.14-1.17,0.1-2.36,0.1-3.55c0-38.23,0.01-76.47-0.04-114.7
		c-0.01-5.25,1.21-10.09,4.06-14.47c5.04-7.74,12.35-11.23,21.44-10.67c8.94,0.55,15.18,5.37,19.21,13.22
		c1.94,3.77,2.56,7.82,2.56,12.03c-0.02,24.74,0,49.48,0.01,74.22c0,1.65-0.04,3.33,0.22,4.95c0.59,3.6,3.64,6.06,7.26,6.05
		c3.69-0.01,6.5-2.41,7.05-6.18c0.24-1.63,0.27-3.3,0.27-4.96c0.03-11.96-0.02-23.91,0.05-35.87c0.06-11.18,7.2-20.51,17.75-23.4
		c1.96-0.54,3.96-0.8,5.97-0.75c4.32,0.11,7.43,3.07,7.76,7.25c0.31,3.99-2.2,7.27-6.3,8.22c-0.35,0.08-0.7,0.13-1.05,0.2
		c-6.1,1.1-8.02,3.42-8.01,9.6c0.01,12.9,0,25.8,0,38.71c0,4.77-1.5,9.04-4.08,13.01c-8.75,13.43-28.26,14.03-37.77,1.13
		c-3.4-4.61-5.26-9.67-5.2-15.51c0.13-13.26,0.09-26.52,0.02-39.77c-0.01-1.85,0.49-2.94,2.11-4.01
		c12.11-7.96,11.93-23.99-0.26-31.85C281.23,449.14,280.73,448.83,280.09,448.43z"/>
	<path class="st1" d="M902.9,534.53c-4.53,0-8.52,0-12.72,0c-2.48-4.28-2.99-9.38-5.29-13.92c-9.82,0-19.6,0-29.48,0
		c-2.19,4.48-3.06,9.45-5.4,13.92c-3.96,0-7.83,0-11.7,0c0.16-2.8,22.29-63.32,24.85-68.06c4.49,0,9.08,0,14.11,0
		C885.74,488.97,894.26,511.58,902.9,534.53z M859.23,509.47c7.46,0,14.36,0,21.63,0c-3.54-9.95-6.97-19.56-10.67-29.96
		C866.4,489.86,862.89,499.44,859.23,509.47z"/>
	<path class="st0" d="M546.82,518.81c3.28-1.8,6.37-3.51,9.38-5.16c1.5,0.52,1.58,1.87,2.13,2.85c2.69,4.76,6.65,7.57,12.11,8.24
		c2.96,0.37,5.92,0.4,8.83-0.21c4.79-1.01,7.46-4.13,7.54-8.54c0.05-2.71-1.04-4.8-3.24-6.34c-1.87-1.31-3.97-2.07-6.11-2.78
		c-4.71-1.56-9.42-3.13-14.13-4.72c-1.01-0.34-2-0.73-2.98-1.15c-13.66-5.83-13.61-22.43-4.31-30.46
		c11.15-9.63,33.65-7.29,40.73,9.36c-1.21,1.39-3.06,1.98-4.63,2.95c-1.59,0.99-3.27,1.83-4.79,2.67c-0.92-0.49-1.15-1.17-1.41-1.83
		c-2.51-6.34-11.41-10.21-19.37-7.01c-1.22,0.49-2.26,1.28-3.16,2.25c-3.53,3.79-2.84,9.19,1.63,11.81
		c3.9,2.29,8.28,3.46,12.56,4.81c3.84,1.21,7.6,2.56,11.28,4.24c11.29,5.16,13.84,23.09,2.08,31.34c-3.57,2.5-7.51,3.99-11.79,4.56
		c-10.69,1.43-20.23-0.82-27.95-8.82C549.13,524.72,547.63,522.22,546.82,518.81z"/>
	<path class="st0" d="M453.3,490.61c0.79-1.52,0.06-3.24,0.69-5.28c3.16-0.31,6.51-0.18,10.15,0.02c0,16.4,0,32.65,0,49.07
		c-3.46,0.43-6.82,0.16-10,0.17c-1.04-1.74,0.11-3.58-0.96-4.95c-0.98-0.24-1.39,0.49-1.82,0.97c-6.44,7.03-21.26,6.83-29.17,0.82
		c-14.29-10.85-13.29-34.42,2.02-44.07c6.9-4.35,20.96-5.16,27.27,2.29C451.9,490.15,452.34,490.8,453.3,490.61z M438.48,494.16
		c-8.83-0.06-15.21,6.42-15.34,15.57c-0.13,9.41,6.11,16.04,15.15,16.11c8.63,0.06,15.11-6.63,15.25-15.74
		C453.67,501.18,447.09,494.21,438.48,494.16z"/>
	<path class="st0" d="M653.28,524.85c-2.22,4.02-5.55,6.58-9.35,8.56c-11.99,6.22-28,2.19-35.21-9.18
		c-5.54-8.74-5.22-18.11-0.7-27.08c4.35-8.63,11.93-12.65,21.58-13.16c15.91-0.84,26.23,12.41,25.96,24.97
		c-0.03,1.52,0.21,3.06-0.34,5.09c-12.79,0.23-25.72-0.18-39.09,0.13c1.1,5.31,3.78,9.02,8.59,10.64
		c7.52,2.53,14.49,1.87,19.84-5.02C647.62,521.28,650.43,522.92,653.28,524.85z M616.65,505.28c9.17,0,18.34,0,27.52,0
		c-0.57-6.83-6.47-11.8-13.75-11.74C623.26,493.59,617.08,498.81,616.65,505.28z"/>
	<path class="st0" d="M813.2,514.03c-12.89,0-25.76,0-38.63,0c0.01,4.6,3.12,8.92,8.07,10.68c7.53,2.67,14.46,2.03,19.85-4.84
		c3.02,1.54,5.92,3.06,8.67,5.01c-2.32,4.48-6.01,7.25-10.32,9.01c-7.93,3.24-16.03,3.17-23.78-0.48
		c-9.88-4.66-14.99-14.1-14.1-25.66c1.62-21.13,23.32-28.7,37.89-20.82c7.27,3.93,11.18,10.37,12.44,18.42
		C813.74,508.13,813.87,510.98,813.2,514.03z M802.37,505.27c-1.18-7.24-6.66-11.76-13.88-11.72c-5.98,0.03-13.13,4.09-13.92,11.72
		C783.83,505.27,793.08,505.27,802.37,505.27z"/>
	<path class="st0" d="M542.72,485.19c-6.77,8.64-14.27,15.68-20.84,24.01c7.09,8.24,14.21,16.5,21.92,25.46
		c-4.75,0-8.59,0.05-12.43-0.03c-1.32-0.03-1.95-1.25-2.7-2.12c-4.57-5.27-9.1-10.58-13.66-15.86c-1.29-1.5-2.54-3.06-4.68-4.73
		c-0.27,4.1,0.01,7.68,0,11.25c-0.01,3.66,0,7.31,0,11.15c-3.64,0.63-7.01,0.19-10.89,0.33c-0.23-22.74-0.02-45.26-0.11-67.94
		c3.66-0.62,7.06-0.22,10.88-0.4c0,13.12,0,26.07,0,38.94c1.82,0.48,2.26-0.76,2.89-1.46c4.68-5.17,9.39-10.33,13.92-15.64
		c1.84-2.16,3.82-3.23,6.71-3C536.5,485.36,539.31,485.19,542.72,485.19z"/>
	<path class="st0" d="M674.8,534.56c-3.37,0-6.66,0-10.42,0c-0.23-16.34-0.06-32.59-0.14-49.26c3.65-0.13,7.12-0.24,10.48,0.08
		c1.02,1.44,0.18,2.99,0.86,4.28c1.07,0.31,1.41-0.67,1.97-1.17c10.47-9.36,27.34-4.41,30.99,9.1c0.65,2.41,0.99,4.87,1,7.36
		c0.04,9.23,0.04,18.45,0.05,27.68c0,0.58-0.11,1.16-0.2,2.04c-3.56,0.08-7.05,0.21-10.47-0.08c-0.78-1.26-0.44-2.46-0.45-3.61
		c-0.02-7.81,0.01-15.61,0-23.42c0-1.18-0.05-2.37-0.13-3.55c-0.57-8.22-7.08-11.78-14.68-9.41c-5.03,1.57-7.71,5.37-8.19,10.52
		c-0.31,3.29-0.15,6.62-0.18,9.93c-0.05,6.15-0.07,12.3-0.12,18.45C675.16,533.73,675.02,533.95,674.8,534.56z"/>
	<path class="st0" d="M756.13,494.56c-2.88,1.65-5.63,3.22-8.45,4.84c-0.89-1-1.62-1.92-2.45-2.74c-3.04-3-7.8-3.98-11.5-2.37
		c-1.82,0.8-3.25,2.02-3.43,4.15c-0.19,2.23,1.25,3.44,3.01,4.38c1.68,0.9,3.53,1.34,5.35,1.87c3.52,1.01,7.08,1.89,10.45,3.39
		c9.6,4.26,11.16,17.23,2.85,23.71c-7.51,5.86-21.25,5.79-29-0.15c-2.29-1.75-4.17-3.85-5.36-6.51c-0.14-0.31-0.16-0.67-0.27-1.18
		c2.73-2.03,5.8-3.45,8.89-5.02c0.37,0.45,0.7,0.78,0.95,1.17c3.56,5.28,9.12,7.24,15.05,5.38c2.1-0.66,3.57-1.82,3.82-4.13
		c0.24-2.27-0.69-3.99-3.14-5c-2.29-0.95-4.7-1.6-7.07-2.31c-3.29-0.98-6.55-1.99-9.64-3.53c-9.15-4.57-8.04-15.55-3.54-20.56
		C730.39,481.32,750.04,481.5,756.13,494.56z"/>
	<path class="st0" d="M396.63,534.54c-4.12,0.22-7.63,0.21-11.5-0.04c0-19.06,0-38.04,0-57.3c-6.57,0-12.78,0-19.4,0
		c-0.52-3.63,0.15-7-0.19-10.62c16.89,0,33.5,0,50.53,0c0.17,3.32,0.34,6.68,0.04,10.36c-6.45,0-12.79,0-19.48,0
		C396.63,496.21,396.63,515.19,396.63,534.54z"/>
	<path class="st1" d="M910.07,466.35c3.78-0.25,7.41-0.22,10.98-0.03c0.83,2.54,1.13,63,0.39,67.97c-2.68,0.73-7.72,0.8-11.37,0.11
		C910.07,511.83,910.07,489.21,910.07,466.35z"/>
	<path class="st0" d="M487.03,534.55c-3.73,0-7.24,0-10.84,0c0-23.6,0-46.99,0-70.59c3.65-0.5,7.13-0.39,10.84-0.08
		C487.03,487.43,487.03,510.81,487.03,534.55z"/>
	<path class="st1" d="M272.15,477.77c-6.53-0.06-11.99-5.8-11.91-12.51c0.07-6.53,5.85-12.27,12.32-12.22
		c6.52,0.04,12.06,5.75,12.06,12.42C284.63,472.29,279,477.84,272.15,477.77z"/>
</g>
</svg>
