<?xml version="1.0" encoding="utf-8"?>
<!-- Generator: Adobe Illustrator 27.8.1, SVG Export Plug-In . SVG Version: 6.00 Build 0)  -->
<svg version="1.1" id="Layer_1" xmlns="http://www.w3.org/2000/svg" xmlns:xlink="http://www.w3.org/1999/xlink" x="0px" y="0px"
	 viewBox="0 0 1000 1000" style="enable-background:new 0 0 1000 1000;" xml:space="preserve">
<style type="text/css">
	.st0{fill:#4F46E5;}
	.st1{fill:#14B8A6;}
</style>
<path class="st0" d="M280.1,448.4c-0.8-6.3-3.3-9.2-7.6-9.2c-4.4,0-6.8,2.8-7.8,9.2c-0.7,0.5-1.5,1.1-2.3,1.6
	c-11.7,7.4-10.4,24.3,0.3,31.1c1.8,1.1,2.3,2.3,2.3,4.3c0,26.5-0.1,53,0.1,79.6c0.1,10.8-7.6,21.4-18.1,23.9
	c-13.8,3.2-27.8-6.7-29-20.9c-0.5-5.7-0.2-11.4-0.2-17c0-46.3,0-92.6,0-138.9c0-1.8,0-3.6-0.2-5.3c-0.5-3.7-3.4-6.2-7-6.3
	s-6.6,2.2-7.6,5.7c-0.4,1.5-0.3,3.1-0.3,4.6c0,41.4,0,82.9-0.1,124.3c0,18.8-0.1,37.6-0.1,56.5c0,4.1-0.7,8-2.7,11.6
	c-5.3,9.5-15.9,14.4-26.1,12c-10.6-2.6-18.1-11.9-18.2-23c-0.1-38.6-0.1-77.2-0.1-115.8c0-9.1,0-18.2,0-27.3c0-1.5,0-3.1-0.5-4.6
	c-1.1-3.4-4.2-5.4-7.7-5.1c-3.2,0.3-6,2.8-6.5,6.1c-0.3,1.6-0.3,3.3-0.3,5c0,24.9,0,49.7,0.1,74.6c0,6.8-2.1,12.6-6.6,17.5
	c-6,6.5-13.5,8.6-22,6.9c-8.9-1.8-14.4-7.7-17.4-16.1c-1.1-2.9-1.2-6-1.2-9.1c0-11.7,0-23.4,0-35.2c0-1.4,0-2.9-0.2-4.2
	c-0.5-3.3-2.7-5.6-5.9-6.3c-0.7-0.1-1.4-0.2-2.1-0.3c-4.8-0.9-7.5-4.5-6.9-9.1c0.6-4,4.2-6.8,8.8-6.5c6.4,0.4,11.9,2.9,16.1,7.8
	c4.1,4.7,6.3,10.2,6.3,16.5c0,12.4,0,24.9,0,37.3c0,1.5,0,3.1,0.5,4.6c1.1,3,3.6,4.9,6.7,5c3.1,0.1,6-1.9,7.1-5
	c0.6-1.5,0.6-3,0.6-4.5c0-24,0-48.1,0-72.1c0-3.5-0.2-7.1,0.7-10.6c3.6-13.2,15.1-20.7,28.4-17.7c9.2,2,16.7,10.6,17.9,20.3
	c0.2,1.4,0.2,2.8,0.2,4.2c0,46.8,0,93.5,0,140.3c0,1.7-0.1,3.3,0.4,4.9c1,3.8,3.7,5.9,7.5,5.7c3.8-0.2,6.4-2.6,6.9-6.4
	c0.2-1.4,0.1-2.8,0.1-4.2c0-57.8,0-115.5,0-173.3c0-3.3-0.1-6.6,0.3-9.9c1.2-10.2,9.5-19,19.6-20.7c13.4-2.2,26.3,7.4,27.4,22.2
	c0.1,1.9,0.1,3.8,0.1,5.7c0,50.3,0,100.6,0,150.9c0,1.4-0.1,2.8,0.4,4.2c1.1,3.6,4,5.8,7.7,5.5c3.5-0.2,6.3-2.9,6.8-6.6
	c0.1-1.2,0.1-2.4,0.1-3.5c0-38.2,0-76.5,0-114.7c0-5.2,1.2-10.1,4.1-14.5c5-7.7,12.3-11.2,21.4-10.7c8.9,0.5,15.2,5.4,19.2,13.2
	c1.9,3.8,2.6,7.8,2.6,12c0,24.7,0,49.5,0,74.2c0,1.7,0,3.3,0.2,5c0.6,3.6,3.6,6.1,7.3,6c3.7,0,6.5-2.4,7-6.2c0.2-1.6,0.3-3.3,0.3-5
	c0-12,0-23.9,0-35.9c0.1-11.2,7.2-20.5,17.8-23.4c2-0.5,4-0.8,6-0.8c4.3,0.1,7.4,3.1,7.8,7.2c0.3,4-2.2,7.3-6.3,8.2
	c-0.4,0.1-0.7,0.1-1,0.2c-6.1,1.1-8,3.4-8,9.6c0,12.9,0,25.8,0,38.7c0,4.8-1.5,9-4.1,13c-8.8,13.4-28.3,14-37.8,1.1
	c-3.4-4.6-5.3-9.7-5.2-15.5c0.1-13.3,0.1-26.5,0-39.8c0-1.9,0.5-2.9,2.1-4c12.1-8,11.9-24-0.3-31.9
	C281.2,449.1,280.7,448.8,280.1,448.4z"/>
<path class="st1" d="M902.9,534.5c-4.5,0-8.5,0-12.7,0c-2.5-4.3-3-9.4-5.3-13.9c-9.8,0-19.6,0-29.5,0c-2.2,4.5-3.1,9.5-5.4,13.9
	c-4,0-7.8,0-11.7,0c0.2-2.8,22.3-63.3,24.8-68.1c4.5,0,9.1,0,14.1,0C885.7,489,894.3,511.6,902.9,534.5z M859.2,509.5
	c7.5,0,14.4,0,21.6,0c-3.5-10-7-19.6-10.7-30C866.4,489.9,862.9,499.4,859.2,509.5z"/>
<path class="st0" d="M546.8,518.8c3.3-1.8,6.4-3.5,9.4-5.2c1.5,0.5,1.6,1.9,2.1,2.8c2.7,4.8,6.7,7.6,12.1,8.2c3,0.4,5.9,0.4,8.8-0.2
	c4.8-1,7.5-4.1,7.5-8.5c0-2.7-1-4.8-3.2-6.3c-1.9-1.3-4-2.1-6.1-2.8c-4.7-1.6-9.4-3.1-14.1-4.7c-1-0.3-2-0.7-3-1.1
	c-13.7-5.8-13.6-22.4-4.3-30.5c11.2-9.6,33.7-7.3,40.7,9.4c-1.2,1.4-3.1,2-4.6,3c-1.6,1-3.3,1.8-4.8,2.7c-0.9-0.5-1.2-1.2-1.4-1.8
	c-2.5-6.3-11.4-10.2-19.4-7c-1.2,0.5-2.3,1.3-3.2,2.2c-3.5,3.8-2.8,9.2,1.6,11.8c3.9,2.3,8.3,3.5,12.6,4.8c3.8,1.2,7.6,2.6,11.3,4.2
	c11.3,5.2,13.8,23.1,2.1,31.3c-3.6,2.5-7.5,4-11.8,4.6c-10.7,1.4-20.2-0.8-28-8.8C549.1,524.7,547.6,522.2,546.8,518.8z"/>
<path class="st0" d="M453.3,490.6c0.8-1.5,0.1-3.2,0.7-5.3c3.2-0.3,6.5-0.2,10.1,0c0,16.4,0,32.7,0,49.1c-3.5,0.4-6.8,0.2-10,0.2
	c-1-1.7,0.1-3.6-1-5c-1-0.2-1.4,0.5-1.8,1c-6.4,7-21.3,6.8-29.2,0.8c-14.3-10.8-13.3-34.4,2-44.1c6.9-4.4,21-5.2,27.3,2.3
	C451.9,490.1,452.3,490.8,453.3,490.6z M438.5,494.2c-8.8-0.1-15.2,6.4-15.3,15.6c-0.1,9.4,6.1,16,15.1,16.1
	c8.6,0.1,15.1-6.6,15.2-15.7C453.7,501.2,447.1,494.2,438.5,494.2z"/>
<path class="st0" d="M653.3,524.8c-2.2,4-5.5,6.6-9.3,8.6c-12,6.2-28,2.2-35.2-9.2c-5.5-8.7-5.2-18.1-0.7-27.1
	c4.3-8.6,11.9-12.6,21.6-13.2c15.9-0.8,26.2,12.4,26,25c0,1.5,0.2,3.1-0.3,5.1c-12.8,0.2-25.7-0.2-39.1,0.1c1.1,5.3,3.8,9,8.6,10.6
	c7.5,2.5,14.5,1.9,19.8-5C647.6,521.3,650.4,522.9,653.3,524.8z M616.7,505.3c9.2,0,18.3,0,27.5,0c-0.6-6.8-6.5-11.8-13.8-11.7
	C623.3,493.6,617.1,498.8,616.7,505.3z"/>
<path class="st0" d="M813.2,514c-12.9,0-25.8,0-38.6,0c0,4.6,3.1,8.9,8.1,10.7c7.5,2.7,14.5,2,19.8-4.8c3,1.5,5.9,3.1,8.7,5
	c-2.3,4.5-6,7.2-10.3,9c-7.9,3.2-16,3.2-23.8-0.5c-9.9-4.7-15-14.1-14.1-25.7c1.6-21.1,23.3-28.7,37.9-20.8
	c7.3,3.9,11.2,10.4,12.4,18.4C813.7,508.1,813.9,511,813.2,514z M802.4,505.3c-1.2-7.2-6.7-11.8-13.9-11.7c-6,0-13.1,4.1-13.9,11.7
	C783.8,505.3,793.1,505.3,802.4,505.3z"/>
<path class="st0" d="M542.7,485.2c-6.8,8.6-14.3,15.7-20.8,24c7.1,8.2,14.2,16.5,21.9,25.5c-4.8,0-8.6,0-12.4,0
	c-1.3,0-2-1.2-2.7-2.1c-4.6-5.3-9.1-10.6-13.7-15.9c-1.3-1.5-2.5-3.1-4.7-4.7c-0.3,4.1,0,7.7,0,11.3c0,3.7,0,7.3,0,11.2
	c-3.6,0.6-7,0.2-10.9,0.3c-0.2-22.7,0-45.3-0.1-67.9c3.7-0.6,7.1-0.2,10.9-0.4c0,13.1,0,26.1,0,38.9c1.8,0.5,2.3-0.8,2.9-1.5
	c4.7-5.2,9.4-10.3,13.9-15.6c1.8-2.2,3.8-3.2,6.7-3C536.5,485.4,539.3,485.2,542.7,485.2z"/>
<path class="st0" d="M674.8,534.6c-3.4,0-6.7,0-10.4,0c-0.2-16.3-0.1-32.6-0.1-49.3c3.7-0.1,7.1-0.2,10.5,0.1c1,1.4,0.2,3,0.9,4.3
	c1.1,0.3,1.4-0.7,2-1.2c10.5-9.4,27.3-4.4,31,9.1c0.7,2.4,1,4.9,1,7.4c0,9.2,0,18.5,0,27.7c0,0.6-0.1,1.2-0.2,2
	c-3.6,0.1-7,0.2-10.5-0.1c-0.8-1.3-0.4-2.5-0.5-3.6c0-7.8,0-15.6,0-23.4c0-1.2,0-2.4-0.1-3.5c-0.6-8.2-7.1-11.8-14.7-9.4
	c-5,1.6-7.7,5.4-8.2,10.5c-0.3,3.3-0.2,6.6-0.2,9.9c0,6.2-0.1,12.3-0.1,18.5C675.2,533.7,675,534,674.8,534.6z"/>
<path class="st0" d="M756.1,494.6c-2.9,1.6-5.6,3.2-8.5,4.8c-0.9-1-1.6-1.9-2.5-2.7c-3-3-7.8-4-11.5-2.4c-1.8,0.8-3.2,2-3.4,4.1
	c-0.2,2.2,1.2,3.4,3,4.4c1.7,0.9,3.5,1.3,5.3,1.9c3.5,1,7.1,1.9,10.5,3.4c9.6,4.3,11.2,17.2,2.8,23.7c-7.5,5.9-21.2,5.8-29-0.2
	c-2.3-1.8-4.2-3.8-5.4-6.5c-0.1-0.3-0.2-0.7-0.3-1.2c2.7-2,5.8-3.5,8.9-5c0.4,0.5,0.7,0.8,1,1.2c3.6,5.3,9.1,7.2,15,5.4
	c2.1-0.7,3.6-1.8,3.8-4.1c0.2-2.3-0.7-4-3.1-5c-2.3-1-4.7-1.6-7.1-2.3c-3.3-1-6.5-2-9.6-3.5c-9.2-4.6-8-15.5-3.5-20.6
	C730.4,481.3,750,481.5,756.1,494.6z"/>
<path class="st0" d="M396.6,534.5c-4.1,0.2-7.6,0.2-11.5,0c0-19.1,0-38,0-57.3c-6.6,0-12.8,0-19.4,0c-0.5-3.6,0.1-7-0.2-10.6
	c16.9,0,33.5,0,50.5,0c0.2,3.3,0.3,6.7,0,10.4c-6.5,0-12.8,0-19.5,0C396.6,496.2,396.6,515.2,396.6,534.5z"/>
<path class="st1" d="M910.1,466.4c3.8-0.2,7.4-0.2,11,0c0.8,2.5,1.1,63,0.4,68c-2.7,0.7-7.7,0.8-11.4,0.1
	C910.1,511.8,910.1,489.2,910.1,466.4z"/>
<path class="st0" d="M487,534.5c-3.7,0-7.2,0-10.8,0c0-23.6,0-47,0-70.6c3.6-0.5,7.1-0.4,10.8-0.1C487,487.4,487,510.8,487,534.5z"
	/>
<path class="st1" d="M272.1,477.8c-6.5-0.1-12-5.8-11.9-12.5c0.1-6.5,5.9-12.3,12.3-12.2c6.5,0,12.1,5.8,12.1,12.4
	C284.6,472.3,279,477.8,272.1,477.8z"/>
</svg>
