<?xml version="1.0" encoding="utf-8"?>
<!-- Generator: Adobe Illustrator 27.8.1, SVG Export Plug-In . SVG Version: 6.00 Build 0)  -->
<svg version="1.1" id="Layer_1" xmlns="http://www.w3.org/2000/svg" xmlns:xlink="http://www.w3.org/1999/xlink" x="0px" y="0px"
	 viewBox="0 0 1000 1000" style="enable-background:new 0 0 1000 1000;" xml:space="preserve">
<style type="text/css">
	.st0{fill:#4F46E5;}
	.st1{fill:#14B8A6;}
</style>
<path class="st0" d="M666.1,377.4c-2-14.9-7.8-21.8-18.1-21.9c-10.5-0.1-16.2,6.7-18.5,21.9c-1.8,1.2-3.6,2.5-5.5,3.7
	c-27.7,17.7-24.8,57.7,0.7,73.9c4.2,2.7,5.4,5.6,5.4,10.2c-0.1,63-0.3,126.1,0.2,189.1c0.2,25.5-18,50.8-43,56.7
	c-32.8,7.7-66.1-15.9-68.8-49.6c-1.1-13.5-0.5-27-0.5-40.5c-0.1-110,0-220,0-330c0-4.2,0-8.5-0.5-12.6c-1.2-8.9-8-14.7-16.6-15
	c-8.6-0.2-15.8,5.2-18,13.6c-1,3.6-0.8,7.3-0.8,10.9c-0.1,98.5-0.1,197-0.1,295.4c0,44.7-0.1,89.5-0.1,134.2c0,9.7-1.8,19-6.5,27.6
	c-12.5,22.7-37.7,34.3-62,28.4c-25.2-6.1-43.1-28.4-43.1-54.6c-0.2-91.7-0.2-183.5-0.2-275.2c0-21.7-0.1-43.3,0-65
	c0-3.7-0.1-7.3-1.3-10.8c-2.7-8-10-12.8-18.2-12.1c-7.5,0.7-14.2,6.7-15.5,14.4c-0.6,3.9-0.6,7.9-0.6,11.8
	c0,59.1-0.1,118.2,0.2,177.3c0.1,16-5,29.9-15.6,41.5c-14.2,15.5-32.2,20.4-52.2,16.4c-21.2-4.3-34.2-18.4-41.4-38.2
	c-2.5-7-2.9-14.3-2.9-21.6c0-27.9,0-55.7-0.1-83.6c0-3.4,0-6.8-0.4-10.1c-1.1-7.8-6.3-13.3-14-14.9c-1.6-0.4-3.3-0.5-5-0.8
	c-11.5-2.2-17.9-10.7-16.3-21.6c1.4-9.6,10.1-16.1,20.9-15.5c15.3,0.9,28.3,7,38.4,18.6c9.7,11.3,15,24.3,14.9,39.3
	c0,29.5,0,59.1,0.1,88.6c0,3.7-0.1,7.3,1.2,10.8c2.6,7.1,8.6,11.7,15.9,11.8c7.5,0.1,14.2-4.6,16.8-11.8c1.3-3.5,1.3-7.2,1.3-10.8
	c0-57.1,0-114.2,0-171.4c0-8.4-0.5-16.9,1.7-25.2c8.5-31.5,35.8-49.1,67.5-42.1c22,4.9,39.8,25.2,42.4,48.2
	c0.4,3.4,0.6,6.7,0.6,10.1c0,111.1,0,222.3,0,333.4c0,3.9-0.1,7.9,0.9,11.8c2.3,9,8.8,14,17.8,13.5c9-0.5,15.2-6.2,16.3-15.3
	c0.4-3.3,0.4-6.7,0.4-10.1c0-137.3,0-274.6,0-411.9c0-7.9-0.3-15.8,0.6-23.6c2.8-24.4,22.5-45.2,46.6-49.2
	c31.8-5.2,62.6,17.6,65.2,52.7c0.3,4.5,0.2,9,0.2,13.5c0,119.6,0,239.2,0.1,358.7c0,3.4-0.1,6.7,0.9,10c2.7,8.7,9.5,13.7,18.3,13.2
	c8.4-0.5,15-6.9,16-15.7c0.3-2.8,0.2-5.6,0.2-8.4c0-90.9,0-181.8-0.1-272.6c0-12.5,2.9-24,9.7-34.4c12-18.4,29.3-26.7,51-25.4
	c21.2,1.3,36.1,12.8,45.7,31.4c4.6,9,6.1,18.6,6.1,28.6c0,58.8,0,117.6,0,176.4c0,3.9-0.1,7.9,0.5,11.8c1.4,8.6,8.7,14.4,17.2,14.4
	c8.8,0,15.5-5.7,16.8-14.7c0.6-3.9,0.6-7.8,0.6-11.8c0.1-28.4,0-56.8,0.1-85.2c0.2-26.6,17.1-48.8,42.2-55.6
	c4.7-1.3,9.4-1.9,14.2-1.8c10.3,0.3,17.7,7.3,18.5,17.2c0.7,9.5-5.2,17.3-15,19.5c-0.8,0.2-1.7,0.3-2.5,0.5
	c-14.5,2.6-19.1,8.1-19,22.8c0,30.7,0,61.3,0,92c0,11.3-3.6,21.5-9.7,30.9c-20.8,31.9-67.2,33.3-89.8,2.7c-8.1-11-12.5-23-12.4-36.9
	c0.3-31.5,0.2-63,0-94.5c0-4.4,1.2-7,5-9.5c28.8-18.9,28.3-57-0.6-75.7C668.8,379.1,667.6,378.4,666.1,377.4z"/>
<path class="st1" d="M647.2,447.2c-15.5-0.1-28.5-13.8-28.3-29.7c0.2-15.5,13.9-29.1,29.3-29c15.5,0.1,28.7,13.7,28.7,29.5
	C676.9,434.1,663.5,447.3,647.2,447.2z"/>
</svg>
