<?xml version="1.0" encoding="utf-8"?>
<!-- Generator: Adobe Illustrator 27.8.1, SVG Export Plug-In . SVG Version: 6.00 Build 0)  -->
<svg version="1.1" id="Layer_1" xmlns="http://www.w3.org/2000/svg" xmlns:xlink="http://www.w3.org/1999/xlink" x="0px" y="0px"
	 viewBox="0 0 1000 1000" style="enable-background:new 0 0 1000 1000;" xml:space="preserve">
<style type="text/css">
	.st0{fill:#5257A5;}
	.st1{fill:#24AB9D;}
</style>
<g>
	<path class="st0" d="M666.08,377.42c-1.95-14.88-7.77-21.78-18.11-21.9c-10.45-0.13-16.23,6.67-18.54,21.94
		c-1.75,1.2-3.57,2.52-5.46,3.72c-27.74,17.68-24.85,57.7,0.7,73.9c4.24,2.69,5.39,5.57,5.39,10.22
		c-0.08,63.03-0.29,126.05,0.16,189.08c0.18,25.55-18.04,50.83-43.05,56.72c-32.84,7.73-66.06-15.93-68.83-49.63
		c-1.11-13.49-0.45-27-0.46-40.5c-0.08-110.01-0.03-220.03-0.05-330.04c0-4.21,0.04-8.47-0.54-12.63c-1.24-8.86-7.98-14.74-16.62-15
		c-8.62-0.25-15.77,5.22-17.98,13.63c-0.95,3.61-0.75,7.26-0.76,10.91c-0.06,98.48-0.09,196.96-0.14,295.43
		c-0.03,44.74-0.13,89.47-0.13,134.21c0,9.74-1.76,18.96-6.5,27.59c-12.5,22.71-37.72,34.31-62.03,28.41
		c-25.23-6.13-43.1-28.36-43.15-54.63c-0.19-91.72-0.17-183.45-0.23-275.17c-0.01-21.66-0.06-43.33-0.05-64.99
		c0-3.68-0.07-7.33-1.26-10.84c-2.71-8-10-12.81-18.2-12.1c-7.5,0.66-14.23,6.7-15.5,14.44c-0.63,3.86-0.64,7.85-0.64,11.78
		c0,59.09-0.08,118.17,0.18,177.26c0.07,16.03-4.95,29.86-15.64,41.55c-14.16,15.5-32.16,20.41-52.22,16.37
		c-21.17-4.27-34.19-18.37-41.39-38.2c-2.53-6.96-2.87-14.3-2.87-21.64c0-27.86-0.02-55.71-0.07-83.57
		c-0.01-3.37,0.02-6.78-0.45-10.1c-1.09-7.83-6.34-13.27-14.02-14.91c-1.65-0.35-3.34-0.5-5-0.81
		c-11.47-2.21-17.87-10.7-16.32-21.63c1.35-9.56,10.05-16.11,20.92-15.48c15.34,0.89,28.3,6.96,38.36,18.64
		c9.7,11.26,14.96,24.27,14.93,39.33c-0.05,29.54,0.05,59.09,0.11,88.63c0.01,3.65-0.09,7.29,1.21,10.83
		c2.62,7.11,8.64,11.66,15.88,11.8c7.47,0.14,14.16-4.6,16.82-11.79c1.3-3.53,1.31-7.17,1.31-10.82
		c-0.02-57.12-0.04-114.23-0.05-171.35c0-8.43-0.49-16.87,1.74-25.17c8.46-31.46,35.84-49.09,67.5-42.09
		c21.96,4.86,39.77,25.2,42.44,48.24c0.39,3.35,0.56,6.73,0.56,10.1c0.01,111.14-0.01,222.28-0.01,333.42
		c0,3.93-0.13,7.88,0.85,11.75c2.29,9.02,8.84,14.01,17.77,13.5c8.99-0.51,15.17-6.19,16.28-15.26c0.41-3.34,0.36-6.74,0.36-10.11
		c0.02-137.31,0.02-274.61,0.05-411.92c0-7.87-0.3-15.76,0.61-23.61c2.83-24.35,22.55-45.19,46.64-49.17
		c31.85-5.25,62.56,17.59,65.22,52.66c0.34,4.48,0.16,9,0.16,13.5c0.02,119.58,0.04,239.16,0.07,358.74c0,3.36-0.14,6.71,0.88,10.03
		c2.66,8.65,9.55,13.71,18.26,13.2c8.36-0.5,14.97-6.87,16.05-15.72c0.34-2.78,0.24-5.62,0.24-8.43
		c-0.01-90.87,0.01-181.75-0.11-272.62c-0.02-12.47,2.86-23.98,9.65-34.39c11.99-18.39,29.35-26.68,50.96-25.35
		c21.25,1.31,36.08,12.76,45.67,31.41c4.61,8.97,6.09,18.58,6.09,28.58c-0.05,58.8-0.01,117.61,0.03,176.41
		c0,3.93-0.1,7.92,0.53,11.77c1.4,8.56,8.66,14.4,17.24,14.37c8.77-0.03,15.45-5.73,16.75-14.7c0.57-3.88,0.64-7.85,0.64-11.78
		c0.07-28.42-0.05-56.84,0.12-85.25c0.15-26.58,17.12-48.75,42.19-55.61c4.65-1.27,9.4-1.89,14.18-1.77
		c10.27,0.26,17.67,7.3,18.45,17.24c0.74,9.48-5.24,17.29-14.97,19.54c-0.82,0.19-1.66,0.31-2.49,0.46
		c-14.5,2.62-19.06,8.14-19.05,22.83c0.03,30.67,0,61.33,0,92c0,11.33-3.56,21.49-9.7,30.92c-20.8,31.92-67.17,33.35-89.77,2.69
		c-8.07-10.95-12.5-22.98-12.37-36.86c0.3-31.51,0.2-63.03,0.05-94.54c-0.02-4.39,1.16-6.98,5.02-9.52
		c28.77-18.93,28.35-57.02-0.63-75.69C668.79,379.12,667.6,378.38,666.08,377.42z"/>
	<path class="st1" d="M647.21,447.16c-15.52-0.15-28.49-13.77-28.31-29.73c0.17-15.53,13.9-29.15,29.28-29.05
		c15.49,0.1,28.68,13.68,28.68,29.52C676.86,434.13,663.49,447.32,647.21,447.16z"/>
</g>
</svg>
